<svg width="163" height="98" fill="none" xmlns="http://www.w3.org/2000/svg"><g clip-path="url(#clip0)"><path fill="#0099AD" d="M0 0h163v98H0z"/><path d="M45.714 27.331c0-.752-.269-1.338-.806-1.758-.527-.42-1.46-.854-2.798-1.303-1.337-.45-2.431-.884-3.28-1.304-2.765-1.358-4.146-3.223-4.146-5.596 0-1.181.341-2.222 1.025-3.12.693-.908 1.67-1.611 2.93-2.11 1.26-.507 2.675-.761 4.248-.761 1.533 0 2.905.273 4.116.82 1.22.547 2.168 1.328 2.842 2.344.674 1.006 1.01 2.158 1.01 3.457h-5.127c0-.87-.268-1.543-.805-2.021-.528-.479-1.245-.718-2.154-.718-.917 0-1.645.205-2.182.615-.527.4-.791.913-.791 1.538 0 .547.293 1.045.879 1.494.586.44 1.616.899 3.09 1.377 1.475.469 2.686.977 3.633 1.524 2.305 1.328 3.457 3.159 3.457 5.493 0 1.865-.703 3.33-2.109 4.394-1.406 1.065-3.335 1.597-5.786 1.597-1.729 0-3.296-.308-4.702-.923-1.397-.625-2.451-1.474-3.164-2.549-.703-1.084-1.055-2.329-1.055-3.735h5.156c0 1.143.293 1.987.88 2.534.595.537 1.557.806 2.885.806.85 0 1.518-.18 2.007-.542.498-.371.747-.889.747-1.553zm12.92-1.567V33h-5.142V11.672h8.51c1.632 0 3.072.303 4.322.908 1.26.596 2.232 1.45 2.915 2.564.694 1.103 1.04 2.358 1.04 3.764 0 2.08-.747 3.745-2.24 4.995-1.485 1.24-3.526 1.86-6.124 1.86h-3.281zm0-3.97h3.369c.996 0 1.753-.25 2.27-.747.528-.498.791-1.201.791-2.11 0-.996-.268-1.792-.805-2.387-.537-.596-1.27-.899-2.197-.908h-3.428v6.152zm32.46.981c0 2.08-.385 3.921-1.156 5.523-.772 1.601-1.87 2.837-3.296 3.706-1.416.86-3.033 1.289-4.849 1.289-1.816 0-3.428-.415-4.834-1.245-1.406-.84-2.505-2.036-3.296-3.589-.781-1.553-1.191-3.335-1.23-5.347v-1.2c0-2.09.38-3.931 1.142-5.523.772-1.602 1.87-2.837 3.296-3.706 1.436-.87 3.067-1.304 4.893-1.304 1.806 0 3.418.43 4.834 1.289 1.416.86 2.514 2.085 3.296 3.677.79 1.582 1.191 3.398 1.2 5.449v.981zm-5.229-.893c0-2.12-.356-3.726-1.07-4.82-.702-1.103-1.713-1.655-3.031-1.655-2.578 0-3.94 1.934-4.087 5.801l-.015 1.567c0 2.09.347 3.697 1.04 4.82.694 1.123 1.724 1.684 3.091 1.684 1.299 0 2.3-.552 3.003-1.655.703-1.104 1.06-2.69 1.07-4.76v-.982zm15.806 3.589h-2.783V33h-5.142V11.672h8.394c2.529 0 4.506.561 5.932 1.684 1.426 1.123 2.139 2.71 2.139 4.761 0 1.485-.303 2.715-.908 3.692-.596.976-1.533 1.767-2.813 2.373l4.453 8.598V33h-5.507l-3.765-7.53zm-2.783-3.97h3.252c.976 0 1.709-.254 2.197-.762.498-.517.747-1.235.747-2.153 0-.918-.249-1.636-.747-2.153-.498-.528-1.231-.791-2.197-.791h-3.252V21.5zm30.439-5.86h-6.401V33h-5.142V15.642H111.5v-3.97h17.827v3.97zM67.692 71h-3.067v-5.344h-4.544V71h-3.085V58.203h3.085v5.08h4.544v-5.08h3.067V71zm12.797-6.135c0 1.248-.231 2.353-.694 3.314-.463.96-1.122 1.702-1.978 2.223-.85.516-1.819.774-2.909.774-1.09 0-2.056-.25-2.9-.747-.844-.504-1.503-1.222-1.978-2.154-.469-.931-.715-2-.738-3.208v-.72c0-1.254.228-2.359.686-3.314.462-.96 1.122-1.702 1.977-2.223.861-.522 1.84-.783 2.936-.783 1.084 0 2.05.258 2.9.774.85.515 1.509 1.25 1.978 2.206.474.95.714 2.039.72 3.27v.588zm-3.137-.536c0-1.271-.214-2.235-.642-2.891-.422-.663-1.028-.994-1.82-.994-1.546 0-2.364 1.16-2.451 3.48l-.01.941c0 1.254.209 2.218.625 2.892.416.674 1.034 1.01 1.854 1.01.78 0 1.38-.33 1.802-.993.422-.662.636-1.614.642-2.856v-.589zm8.78-6.126l2.856 8.903 2.848-8.903h4.06V71h-3.093v-2.988l.299-6.117L90.008 71h-2.04l-3.102-9.114.299 6.126V71H82.08V58.203h4.052zm19.67 7.374h-4.852v3.05h5.731V71h-8.816V58.203h8.833v2.382h-5.748v2.698h4.852v2.294zM75.403 38.121h3.202v11.122h-3.202V38.12zm-2.668 2.085h1.6v6.951h-1.6v-6.95zm12.273-2.083h3.202v11.121h-3.201V38.123zm4.269 2.085h1.601v6.951h-1.6v-6.95zm-9.605 1.389h4.27v4.171h-4.27v-4.17zm12.273.002h1.068v4.17h-1.068V41.6zM70.6 41.596h1.068v4.17h-1.067v-4.17zM26.387 92.525c.488 0 .896-.136 1.224-.41a1.46 1.46 0 00.54-1.072h.673a2 2 0 01-.363 1.06 2.28 2.28 0 01-.89.745c-.368.18-.762.27-1.184.27-.832 0-1.492-.29-1.98-.868-.485-.578-.727-1.356-.727-2.332v-.211c0-.625.11-1.178.328-1.658.219-.48.531-.852.937-1.114.41-.261.889-.392 1.436-.392.695 0 1.267.207 1.717.621.453.414.695.959.726 1.635h-.674c-.03-.496-.21-.897-.539-1.201-.324-.305-.734-.457-1.23-.457-.633 0-1.125.228-1.477.685-.347.457-.521 1.098-.521 1.922v.205c0 .809.174 1.44.521 1.893.352.453.846.68 1.483.68zM35.1 93h-.703v-5.736H30.98V93h-.704v-6.34H35.1V93zm1.494-3.264c0-.609.117-1.158.351-1.646a2.71 2.71 0 011.002-1.137 2.7 2.7 0 011.471-.41c.844 0 1.527.297 2.05.89.524.59.786 1.374.786 2.35v.147c0 .613-.12 1.166-.357 1.658a2.632 2.632 0 01-.997 1.13 2.74 2.74 0 01-1.47.4c-.84 0-1.524-.296-2.051-.886-.523-.593-.785-1.379-.785-2.355v-.14zm.703.194c0 .757.195 1.38.586 1.869.394.484.91.726 1.547.726.633 0 1.144-.242 1.535-.726.394-.489.592-1.131.592-1.928v-.135c0-.484-.09-.927-.27-1.33a2.146 2.146 0 00-.756-.931 1.92 1.92 0 00-1.113-.334 1.87 1.87 0 00-1.53.738c-.394.488-.591 1.129-.591 1.922v.129zm11.508-.036c0 .989-.22 1.774-.657 2.356-.437.578-1.023.867-1.757.867-.868 0-1.532-.305-1.993-.914v3.234h-.697V86.66h.65l.036.897c.457-.676 1.119-1.014 1.986-1.014.758 0 1.352.287 1.781.861.434.575.65 1.371.65 2.39v.1zm-.703-.123c0-.808-.166-1.447-.498-1.915-.332-.47-.795-.704-1.39-.704-.429 0-.798.104-1.107.31-.308.208-.544.509-.709.903v3.041c.168.363.409.64.721.832.313.192.682.287 1.108.287.59 0 1.048-.234 1.377-.703.331-.472.498-1.156.498-2.05zm6.345-2.513H52.14V93h-.704v-5.742h-2.22v-.598h5.232v.598zm5.32-.598h.704V93h-.703v-5.209L56.346 93h-.698v-6.34h.698v5.215l3.422-5.215zm2.66 6.34v-6.34h2.327c.805 0 1.422.145 1.852.434.43.285.644.705.644 1.26 0 .316-.096.6-.287.85-.191.245-.47.425-.838.538.414.078.746.256.996.533.254.278.381.6.381.967 0 .559-.207.992-.621 1.301-.41.305-.992.457-1.746.457h-2.707zm.698-2.918v2.332h2.033c.528 0 .934-.102 1.219-.305.285-.203.428-.496.428-.878a.983.983 0 00-.428-.838c-.285-.207-.691-.311-1.219-.311h-2.033zm0-.586H64.9c1.102-.015 1.653-.39 1.653-1.125 0-.387-.153-.668-.457-.844-.301-.18-.748-.27-1.342-.27h-1.629v2.24zM73.935 93h-.703v-2.906h-3.416V93h-.703v-6.34h.703v2.842h3.416V86.66h.704V93zm2.655-4.037h1.828c.469 0 .879.086 1.23.258.356.168.624.402.803.703.184.3.276.65.276 1.049 0 .613-.211 1.105-.633 1.476-.418.367-.985.551-1.7.551h-2.501v-6.34h.697v2.303zm0 .598v2.847h1.816c.504 0 .899-.127 1.184-.38.289-.255.433-.602.433-1.044 0-.421-.14-.761-.421-1.02-.278-.26-.659-.396-1.143-.403h-1.87zM82.877 93h-.703v-6.34h.703V93zm6.117-6.34h.703V93h-.703v-5.209L85.572 93h-.697v-6.34h.697v5.215l3.422-5.215zm-.035-2.285c0 .45-.154.813-.463 1.09-.305.277-.715.416-1.23.416-.508 0-.918-.137-1.23-.41-.31-.278-.464-.643-.464-1.096h.598c0 .324.096.572.287.744.195.172.465.258.809.258.343 0 .611-.09.802-.27.196-.18.293-.423.293-.732h.598zm9.047 7.676l2.519-5.39h.868V93h-.704v-5.203L98.252 93h-.498l-2.485-5.32V93h-.697v-6.34h.92l2.514 5.39zm9.269.949c-.07-.2-.115-.494-.134-.885a2.46 2.46 0 01-.944.744 2.889 2.889 0 01-1.207.258c-.609 0-1.103-.17-1.482-.51a1.665 1.665 0 01-.563-1.289c0-.617.256-1.105.768-1.465.516-.359 1.232-.538 2.15-.538h1.272v-.721c0-.453-.141-.809-.422-1.067-.277-.261-.684-.392-1.219-.392-.488 0-.892.125-1.213.375-.32.25-.48.55-.48.902l-.703-.006c0-.504.234-.94.703-1.306.469-.371 1.045-.557 1.728-.557.707 0 1.264.178 1.67.533.41.352.621.844.633 1.477v3c0 .613.064 1.072.193 1.377V93h-.75zm-2.203-.504c.469 0 .887-.113 1.254-.34.371-.226.641-.529.809-.908v-1.395h-1.254c-.699.008-1.246.137-1.641.387-.394.246-.592.586-.592 1.02 0 .355.131.65.393.884.266.235.609.352 1.031.352zm8.584-5.232h-3.205V93h-.703v-6.34h3.908v.604zM118.771 93c-.07-.2-.115-.494-.134-.885a2.46 2.46 0 01-.944.744 2.889 2.889 0 01-1.207.258c-.609 0-1.103-.17-1.482-.51a1.665 1.665 0 01-.563-1.289c0-.617.256-1.105.768-1.465.516-.359 1.232-.538 2.15-.538h1.272v-.721c0-.453-.141-.809-.422-1.067-.277-.261-.684-.392-1.219-.392-.488 0-.892.125-1.213.375-.32.25-.48.55-.48.902l-.703-.006c0-.504.234-.94.703-1.306.469-.371 1.045-.557 1.728-.557.707 0 1.264.178 1.67.533.41.352.621.844.633 1.477v3c0 .613.065 1.072.193 1.377V93h-.75zm-2.203-.504c.469 0 .887-.113 1.254-.34.371-.226.641-.529.809-.908v-1.395h-1.254c-.699.008-1.246.137-1.641.387-.394.246-.591.586-.591 1.02 0 .355.13.65.392.884.266.235.609.352 1.031.352zm8.35-4.16c0-.383-.143-.678-.428-.885-.285-.207-.678-.31-1.178-.31-.453 0-.841.117-1.166.351-.32.23-.48.524-.48.88h-.697c0-.528.224-.964.674-1.308.453-.343 1.009-.515 1.669-.515.727 0 1.293.156 1.7.469.406.312.609.755.609 1.33 0 .304-.094.58-.281.826-.188.246-.461.437-.82.574.812.223 1.218.727 1.218 1.512 0 .57-.22 1.021-.662 1.353-.441.332-1.027.498-1.758.498-.707 0-1.293-.177-1.757-.533-.465-.355-.698-.82-.698-1.394h.703c0 .382.168.703.504.96.34.254.756.381 1.248.381.536 0 .953-.11 1.254-.334.305-.226.457-.533.457-.92 0-.425-.138-.732-.416-.92-.277-.187-.701-.28-1.271-.28h-.967v-.61h1.084c.973-.023 1.459-.398 1.459-1.125zm6.533-1.676h.703V93h-.703v-5.209L128.029 93h-.697v-6.34h.697v5.215l3.422-5.215zm7.453 6.34h-.703v-2.906h-3.416V93h-.703v-6.34h.703v2.842h3.416V86.66h.703V93z" fill="#fff"/></g><defs><clipPath id="clip0"><path fill="#fff" d="M0 0h163v98H0z"/></clipPath></defs></svg>