<svg width="130" height="60" fill="none" xmlns="http://www.w3.org/2000/svg"><path d="M29.214 16.331c0-.752-.269-1.338-.806-1.758-.527-.42-1.46-.854-2.798-1.303-1.337-.45-2.431-.884-3.28-1.304-2.765-1.358-4.146-3.223-4.146-5.596 0-1.182.341-2.222 1.025-3.12.693-.908 1.67-1.611 2.93-2.11 1.26-.506 2.675-.76 4.248-.76 1.533 0 2.905.273 4.116.82 1.22.547 2.168 1.328 2.842 2.344.674 1.006 1.01 2.158 1.01 3.457H29.23c0-.87-.269-1.543-.806-2.021-.527-.479-1.245-.718-2.153-.718-.918 0-1.646.205-2.183.615-.527.4-.791.913-.791 1.538 0 .547.293 1.045.879 1.494.586.44 1.616.899 3.09 1.377 1.475.469 2.686.977 3.633 1.524 2.305 1.328 3.457 3.159 3.457 5.493 0 1.865-.703 3.33-2.109 4.394-1.406 1.065-3.335 1.597-5.786 1.597-1.729 0-3.296-.308-4.702-.923-1.397-.625-2.451-1.475-3.164-2.549-.703-1.084-1.055-2.329-1.055-3.735h5.156c0 1.143.293 1.987.88 2.534.595.537 1.557.806 2.885.806.85 0 1.518-.18 2.007-.542.498-.371.747-.889.747-1.553zm12.92-1.567V22h-5.142V.672h8.51c1.632 0 3.072.303 4.322.908 1.26.596 2.232 1.45 2.915 2.564.694 1.103 1.04 2.358 1.04 3.764 0 2.08-.747 3.745-2.24 4.995-1.485 1.24-3.526 1.86-6.124 1.86h-3.281zm0-3.97h3.369c.996 0 1.753-.25 2.27-.747.528-.498.791-1.201.791-2.11 0-.996-.268-1.791-.805-2.387-.537-.596-1.27-.899-2.197-.908h-3.428v6.152zm32.46.981c0 2.08-.385 3.921-1.156 5.523-.772 1.601-1.87 2.837-3.296 3.706-1.416.86-3.033 1.289-4.849 1.289-1.816 0-3.428-.415-4.834-1.245-1.406-.84-2.505-2.036-3.296-3.589-.781-1.553-1.191-3.335-1.23-5.347v-1.2c0-2.09.38-3.932 1.142-5.523.772-1.602 1.87-2.837 3.296-3.706C61.807.813 63.437.379 65.264.379c1.806 0 3.418.43 4.834 1.289 1.416.86 2.514 2.085 3.296 3.677.79 1.582 1.191 3.398 1.2 5.449v.981zm-5.229-.893c0-2.12-.356-3.726-1.07-4.82-.702-1.103-1.713-1.655-3.031-1.655-2.578 0-3.94 1.934-4.087 5.801l-.015 1.567c0 2.09.347 3.697 1.04 4.82.694 1.123 1.724 1.684 3.091 1.684 1.299 0 2.3-.552 3.003-1.655.703-1.103 1.06-2.69 1.07-4.76v-.982zm15.806 3.589h-2.783V22h-5.142V.672h8.394c2.529 0 4.507.561 5.932 1.684 1.426 1.123 2.139 2.71 2.139 4.761 0 1.485-.303 2.715-.908 3.692-.596.976-1.534 1.767-2.813 2.373l4.453 8.598V22h-5.507l-3.765-7.53zm-2.783-3.97h3.252c.976 0 1.709-.254 2.197-.762.498-.517.747-1.235.747-2.153 0-.918-.249-1.636-.747-2.153-.498-.528-1.23-.791-2.197-.791h-3.252V10.5zm30.439-5.86h-6.401V22h-5.142V4.642H95V.672h17.827v3.97zM51.192 54h-3.067v-5.344h-4.544V54h-3.085V41.203h3.085v5.08h4.544v-5.08h3.067V54zm12.797-6.135c0 1.248-.231 2.353-.694 3.314-.463.96-1.122 1.702-1.978 2.223-.85.516-1.819.774-2.909.774-1.09 0-2.056-.25-2.9-.747-.844-.504-1.503-1.222-1.978-2.154-.468-.931-.715-2-.738-3.208v-.72c0-1.254.228-2.359.685-3.314.463-.96 1.123-1.702 1.978-2.223.861-.522 1.84-.783 2.936-.783 1.084 0 2.05.258 2.9.774.85.515 1.509 1.25 1.978 2.206.474.95.714 2.039.72 3.27v.588zm-3.137-.536c0-1.271-.214-2.235-.642-2.892-.422-.662-1.028-.993-1.82-.993-1.546 0-2.364 1.16-2.452 3.48l-.008.941c0 1.254.208 2.218.624 2.892.416.674 1.034 1.01 1.854 1.01.78 0 1.38-.33 1.802-.993.422-.662.636-1.614.642-2.856v-.589zm8.78-6.126l2.856 8.903 2.848-8.903h4.06V54h-3.093v-2.988l.299-6.117L73.508 54h-2.04l-3.102-9.114.299 6.126V54H65.58V41.203h4.052zm19.67 7.374H84.45v3.05h5.73V54h-8.815V41.203h8.833v2.382H84.45v2.698h4.852v2.294zM60.107 28.809h2.553v6.809h-2.553v-6.809zm-2.128 1.276h1.276v4.256H57.98v-4.256zm9.788-1.275h2.554v6.809h-2.553v-6.81zm3.405 1.277h1.277v4.255h-1.277v-4.255zm-7.66.85h3.404v2.554h-3.404v-2.554zm9.788.001h.851v2.554H73.3v-2.554zm-17.023-.002h.85v2.554h-.85v-2.554z" fill="#fff"/></svg>